<mxfile host="app.diagrams.net" agent="Mozilla/5.0 (Windows NT 10.0; Win64; x64) AppleWebKit/537.36 (KHTML, like Gecko) Chrome/131.0.0.0 Safari/537.36 Edg/131.0.0.0" version="26.0.5">
  <diagram name="Page-1" id="VfFuMfbtEmzcfzntFXFj">
    <mxGraphModel dx="2218" dy="585" grid="1" gridSize="10" guides="1" tooltips="1" connect="1" arrows="1" fold="1" page="1" pageScale="1" pageWidth="850" pageHeight="1100" math="0" shadow="0">
      <root>
        <mxCell id="0" />
        <mxCell id="1" parent="0" />
        <mxCell id="shkfzsNHpXwQDpeqCOwV-6" value="dim_scrape" style="swimlane;childLayout=stackLayout;horizontal=1;startSize=20;horizontalStack=0;rounded=1;fontSize=14;fontStyle=0;strokeWidth=2;resizeParent=0;resizeLast=1;shadow=0;dashed=0;align=center;arcSize=4;whiteSpace=wrap;html=1;fillColor=#dae8fc;strokeColor=#6c8ebf;" parent="1" vertex="1">
          <mxGeometry x="521" y="624" width="160" height="120" as="geometry" />
        </mxCell>
        <mxCell id="m3Vux-1cXnavoQxJAWtm-18" value="+ scrape_id&lt;div&gt;+ last_scraped&lt;/div&gt;" style="align=left;strokeColor=none;fillColor=none;spacingLeft=4;fontSize=12;verticalAlign=top;resizable=0;rotatable=0;part=1;html=1;" vertex="1" parent="shkfzsNHpXwQDpeqCOwV-6">
          <mxGeometry y="20" width="160" height="100" as="geometry" />
        </mxCell>
        <mxCell id="shkfzsNHpXwQDpeqCOwV-25" style="edgeStyle=orthogonalEdgeStyle;rounded=0;orthogonalLoop=1;jettySize=auto;html=1;exitX=0.5;exitY=1;exitDx=0;exitDy=0;" parent="shkfzsNHpXwQDpeqCOwV-6" edge="1">
          <mxGeometry relative="1" as="geometry">
            <mxPoint x="80" y="120" as="sourcePoint" />
            <mxPoint x="80" y="120" as="targetPoint" />
          </mxGeometry>
        </mxCell>
        <mxCell id="shkfzsNHpXwQDpeqCOwV-13" value="fct_host_info" style="swimlane;childLayout=stackLayout;horizontal=1;startSize=20;horizontalStack=0;rounded=1;fontSize=14;fontStyle=0;strokeWidth=2;resizeParent=0;resizeLast=1;shadow=0;dashed=0;align=center;arcSize=4;whiteSpace=wrap;html=1;fillColor=#fff2cc;strokeColor=#d6b656;" parent="1" vertex="1">
          <mxGeometry x="190" y="210" width="270" height="250" as="geometry" />
        </mxCell>
        <mxCell id="shkfzsNHpXwQDpeqCOwV-14" value="+ host_id&lt;div&gt;+ scrape_id&lt;br&gt;&lt;div&gt;&lt;div&gt;+ response_time&lt;/div&gt;&lt;div&gt;+ response_rate&lt;/div&gt;&lt;/div&gt;&lt;div&gt;+ acceptance_rate&lt;/div&gt;&lt;div&gt;+ is_superhost&lt;br&gt;&lt;div&gt;+ listings_count&lt;/div&gt;&lt;div&gt;+ total_listings_count&lt;/div&gt;&lt;div&gt;+ verifications&lt;/div&gt;&lt;div&gt;+ has_profile_pic&lt;/div&gt;&lt;div&gt;+ identity_verified&lt;/div&gt;&lt;/div&gt;&lt;/div&gt;&lt;div&gt;&lt;div&gt;+ calculated_host_listings_count&lt;/div&gt;&lt;div&gt;+ calculated_host_listings_count_entire_homes&lt;/div&gt;&lt;div&gt;+ calculated_host_listings_count_private_rooms&lt;/div&gt;&lt;div&gt;+ calculated_host_listings_count_shared_rooms&lt;/div&gt;&lt;/div&gt;&lt;div&gt;&lt;br&gt;&lt;/div&gt;" style="align=left;strokeColor=none;fillColor=none;spacingLeft=4;fontSize=12;verticalAlign=top;resizable=0;rotatable=0;part=1;html=1;" parent="shkfzsNHpXwQDpeqCOwV-13" vertex="1">
          <mxGeometry y="20" width="270" height="230" as="geometry" />
        </mxCell>
        <mxCell id="shkfzsNHpXwQDpeqCOwV-15" value="dim_hosts" style="swimlane;childLayout=stackLayout;horizontal=1;startSize=20;horizontalStack=0;rounded=1;fontSize=14;fontStyle=0;strokeWidth=2;resizeParent=0;resizeLast=1;shadow=0;dashed=0;align=center;arcSize=4;whiteSpace=wrap;html=1;fillColor=#dae8fc;strokeColor=#6c8ebf;" parent="1" vertex="1">
          <mxGeometry x="-260" y="210" width="160" height="160" as="geometry">
            <mxRectangle x="50" y="20" width="80" height="30" as="alternateBounds" />
          </mxGeometry>
        </mxCell>
        <mxCell id="shkfzsNHpXwQDpeqCOwV-16" value="&lt;div&gt;+ host_id&lt;/div&gt;&lt;div&gt;+ url&lt;/div&gt;&lt;div&gt;+ name&lt;/div&gt;&lt;div&gt;+ since&lt;/div&gt;&lt;div&gt;+ location&lt;/div&gt;&lt;div&gt;+ about&lt;/div&gt;&lt;div&gt;+ thumbnail_url&lt;/div&gt;&lt;div&gt;+ picture_url&lt;/div&gt;&lt;div&gt;+ neighbourhood_id&lt;/div&gt;" style="align=left;strokeColor=none;fillColor=none;spacingLeft=4;fontSize=12;verticalAlign=top;resizable=0;rotatable=0;part=1;html=1;" parent="shkfzsNHpXwQDpeqCOwV-15" vertex="1">
          <mxGeometry y="20" width="160" height="140" as="geometry" />
        </mxCell>
        <mxCell id="shkfzsNHpXwQDpeqCOwV-21" value="dim_neighbourhoods" style="swimlane;childLayout=stackLayout;horizontal=1;startSize=20;horizontalStack=0;rounded=1;fontSize=14;fontStyle=0;strokeWidth=2;resizeParent=0;resizeLast=1;shadow=0;dashed=0;align=center;arcSize=4;whiteSpace=wrap;html=1;fillColor=#dae8fc;strokeColor=#6c8ebf;" parent="1" vertex="1">
          <mxGeometry x="-525" y="580" width="200" height="120" as="geometry" />
        </mxCell>
        <mxCell id="shkfzsNHpXwQDpeqCOwV-22" value="&lt;div&gt;+&amp;nbsp;&lt;span style=&quot;background-color: transparent; color: light-dark(rgb(0, 0, 0), rgb(255, 255, 255));&quot;&gt;neighbourhood_id&lt;/span&gt;&lt;/div&gt;&lt;div&gt;+ neighbourhood_name&lt;/div&gt;&lt;div&gt;+ neighbourhood_cleansed&lt;/div&gt;&lt;div&gt;+ neighbourhood_group_cleansed&lt;/div&gt;&lt;div&gt;+ geometry_type&lt;/div&gt;&lt;div&gt;+ geometry_coordinates&lt;/div&gt;" style="align=left;strokeColor=none;fillColor=none;spacingLeft=4;fontSize=12;verticalAlign=top;resizable=0;rotatable=0;part=1;html=1;" parent="shkfzsNHpXwQDpeqCOwV-21" vertex="1">
          <mxGeometry y="20" width="200" height="100" as="geometry" />
        </mxCell>
        <mxCell id="shkfzsNHpXwQDpeqCOwV-28" value="fct_listing_info" style="swimlane;childLayout=stackLayout;horizontal=1;startSize=20;horizontalStack=0;rounded=1;fontSize=14;fontStyle=0;strokeWidth=2;resizeParent=0;resizeLast=1;shadow=0;dashed=0;align=center;arcSize=4;whiteSpace=wrap;html=1;fillColor=#fff2cc;strokeColor=#d6b656;" parent="1" vertex="1">
          <mxGeometry x="190" y="480" width="270" height="520" as="geometry" />
        </mxCell>
        <mxCell id="shkfzsNHpXwQDpeqCOwV-29" value="&lt;div&gt;+ listing_id&lt;/div&gt;&lt;div&gt;+ scrape_id&lt;/div&gt;&lt;div&gt;+ source&lt;/div&gt;&lt;div&gt;&lt;span style=&quot;background-color: transparent; color: light-dark(rgb(0, 0, 0), rgb(255, 255, 255));&quot;&gt;+ price&lt;/span&gt;&lt;/div&gt;&lt;div&gt;+ minimum_nights&lt;/div&gt;&lt;div&gt;+ maximum_nights&lt;/div&gt;&lt;div&gt;+ minimum_minimum_nights&lt;/div&gt;&lt;div&gt;+ maximum_minimum_nights&lt;/div&gt;&lt;div&gt;+ minimum_maximum_nights&lt;/div&gt;&lt;div&gt;+ maximum_maximum_nights&lt;/div&gt;&lt;div&gt;+ minimum_nights_avg_ntm&lt;/div&gt;&lt;div&gt;+ maximum_nights_avg_ntm&lt;/div&gt;&lt;div&gt;+ calendar_updated&lt;/div&gt;&lt;div&gt;+ has_availability&lt;/div&gt;&lt;div&gt;+ availability_30&lt;/div&gt;&lt;div&gt;+ availability_60&lt;/div&gt;&lt;div&gt;+ availability_90&lt;/div&gt;&lt;div&gt;+ availability_365&lt;/div&gt;&lt;div&gt;+ calendar_last_scraped&lt;/div&gt;&lt;div&gt;+ number_of_reviews&lt;/div&gt;&lt;div&gt;+ number_of_reviews_ltm&lt;/div&gt;&lt;div&gt;+ number_of_reviews_l30d&lt;/div&gt;&lt;div&gt;+ first_review&lt;/div&gt;&lt;div&gt;+ last_review&lt;/div&gt;&lt;div&gt;+ review_scores_rating&lt;/div&gt;&lt;div&gt;+ review_scores_accuracy&lt;/div&gt;&lt;div&gt;+ review_scores_cleanliness&lt;/div&gt;&lt;div&gt;+ review_scores_checkin&lt;/div&gt;&lt;div&gt;+ review_scores_communication&lt;/div&gt;&lt;div&gt;+ review_scores_location&lt;/div&gt;&lt;div&gt;+ review_scores_value&lt;/div&gt;&lt;div&gt;+ license&lt;/div&gt;&lt;div&gt;+ instant_bookable&lt;/div&gt;&lt;div&gt;&lt;span style=&quot;background-color: transparent; color: light-dark(rgb(0, 0, 0), rgb(255, 255, 255));&quot;&gt;+ reviews_per_month&lt;/span&gt;&lt;/div&gt;&lt;div&gt;&lt;br&gt;&lt;/div&gt;" style="align=left;strokeColor=none;fillColor=none;spacingLeft=4;fontSize=12;verticalAlign=top;resizable=0;rotatable=0;part=1;html=1;" parent="shkfzsNHpXwQDpeqCOwV-28" vertex="1">
          <mxGeometry y="20" width="270" height="500" as="geometry" />
        </mxCell>
        <mxCell id="shkfzsNHpXwQDpeqCOwV-30" style="edgeStyle=orthogonalEdgeStyle;rounded=0;orthogonalLoop=1;jettySize=auto;html=1;exitX=0.5;exitY=1;exitDx=0;exitDy=0;" parent="shkfzsNHpXwQDpeqCOwV-28" source="shkfzsNHpXwQDpeqCOwV-29" target="shkfzsNHpXwQDpeqCOwV-29" edge="1">
          <mxGeometry relative="1" as="geometry" />
        </mxCell>
        <mxCell id="shkfzsNHpXwQDpeqCOwV-31" value="dim_listings" style="swimlane;childLayout=stackLayout;horizontal=1;startSize=20;horizontalStack=0;rounded=1;fontSize=14;fontStyle=0;strokeWidth=2;resizeParent=0;resizeLast=1;shadow=0;dashed=0;align=center;arcSize=4;whiteSpace=wrap;html=1;fillColor=#dae8fc;strokeColor=#6c8ebf;" parent="1" vertex="1">
          <mxGeometry x="-40" y="490" width="170" height="300" as="geometry" />
        </mxCell>
        <mxCell id="shkfzsNHpXwQDpeqCOwV-32" value="+ listing_id&lt;div&gt;+ host_id&lt;br&gt;&lt;div&gt;&lt;div&gt;+ listing_url&lt;/div&gt;&lt;div&gt;&lt;span style=&quot;background-color: transparent; color: light-dark(rgb(0, 0, 0), rgb(255, 255, 255));&quot;&gt;+ name&lt;/span&gt;&lt;/div&gt;&lt;div&gt;+ description&lt;/div&gt;&lt;div&gt;+ neighborhood_overview&lt;/div&gt;&lt;div&gt;+ picture_url&lt;/div&gt;&lt;div&gt;+ latitude&lt;/div&gt;&lt;div&gt;+ longitude&lt;/div&gt;&lt;div&gt;+ property_type&lt;/div&gt;&lt;div&gt;+ room_type&lt;/div&gt;&lt;div&gt;+ accommodates&lt;/div&gt;&lt;div&gt;+ bathrooms&lt;/div&gt;&lt;div&gt;+ bathrooms_text&lt;/div&gt;&lt;div&gt;+ bedrooms&lt;/div&gt;&lt;div&gt;+ beds&lt;/div&gt;&lt;div&gt;+ amenities&lt;/div&gt;&lt;/div&gt;&lt;div&gt;+&amp;nbsp;&lt;span style=&quot;background-color: transparent; color: light-dark(rgb(0, 0, 0), rgb(255, 255, 255));&quot;&gt;neighbourhood_id&lt;/span&gt;&lt;/div&gt;&lt;/div&gt;" style="align=left;strokeColor=none;fillColor=none;spacingLeft=4;fontSize=12;verticalAlign=top;resizable=0;rotatable=0;part=1;html=1;" parent="shkfzsNHpXwQDpeqCOwV-31" vertex="1">
          <mxGeometry y="20" width="170" height="280" as="geometry" />
        </mxCell>
        <mxCell id="m3Vux-1cXnavoQxJAWtm-22" value="&lt;div&gt;&lt;div&gt;&lt;br&gt;&lt;/div&gt;&lt;/div&gt;" style="align=left;strokeColor=none;fillColor=none;spacingLeft=4;fontSize=12;verticalAlign=top;resizable=0;rotatable=0;part=1;html=1;" vertex="1" parent="shkfzsNHpXwQDpeqCOwV-31">
          <mxGeometry y="300" width="170" as="geometry" />
        </mxCell>
        <mxCell id="shkfzsNHpXwQDpeqCOwV-33" style="edgeStyle=orthogonalEdgeStyle;rounded=0;orthogonalLoop=1;jettySize=auto;html=1;exitX=0.5;exitY=1;exitDx=0;exitDy=0;" parent="shkfzsNHpXwQDpeqCOwV-31" source="shkfzsNHpXwQDpeqCOwV-32" target="shkfzsNHpXwQDpeqCOwV-32" edge="1">
          <mxGeometry relative="1" as="geometry" />
        </mxCell>
        <mxCell id="shkfzsNHpXwQDpeqCOwV-41" value="" style="edgeStyle=entityRelationEdgeStyle;fontSize=12;html=1;endArrow=ERoneToMany;rounded=0;entryX=1;entryY=0.367;entryDx=0;entryDy=0;entryPerimeter=0;exitX=0;exitY=0.5;exitDx=0;exitDy=0;" parent="1" source="shkfzsNHpXwQDpeqCOwV-6" target="shkfzsNHpXwQDpeqCOwV-29" edge="1">
          <mxGeometry width="100" height="100" relative="1" as="geometry">
            <mxPoint x="560" y="715" as="sourcePoint" />
            <mxPoint x="458" y="680" as="targetPoint" />
            <Array as="points">
              <mxPoint x="520" y="650" />
              <mxPoint x="580" y="680" />
              <mxPoint x="520" y="600" />
            </Array>
          </mxGeometry>
        </mxCell>
        <mxCell id="shkfzsNHpXwQDpeqCOwV-44" value="" style="edgeStyle=entityRelationEdgeStyle;fontSize=12;html=1;endArrow=ERoneToMany;rounded=0;exitX=1;exitY=0.5;exitDx=0;exitDy=0;entryX=0;entryY=0.06;entryDx=0;entryDy=0;entryPerimeter=0;" parent="1" source="shkfzsNHpXwQDpeqCOwV-32" target="shkfzsNHpXwQDpeqCOwV-29" edge="1">
          <mxGeometry width="100" height="100" relative="1" as="geometry">
            <mxPoint x="120" y="620" as="sourcePoint" />
            <mxPoint x="220" y="520" as="targetPoint" />
          </mxGeometry>
        </mxCell>
        <mxCell id="shkfzsNHpXwQDpeqCOwV-46" value="" style="edgeStyle=entityRelationEdgeStyle;fontSize=12;html=1;endArrow=ERoneToMany;rounded=0;entryX=0;entryY=0.167;entryDx=0;entryDy=0;entryPerimeter=0;" parent="1" source="shkfzsNHpXwQDpeqCOwV-16" target="shkfzsNHpXwQDpeqCOwV-32" edge="1">
          <mxGeometry width="100" height="100" relative="1" as="geometry">
            <mxPoint x="20" y="370" as="sourcePoint" />
            <mxPoint x="120" y="270" as="targetPoint" />
            <Array as="points">
              <mxPoint x="-170" y="370" />
              <mxPoint x="-110" y="340" />
              <mxPoint x="-72" y="480" />
              <mxPoint x="-60" y="490" />
              <mxPoint x="-60" y="428" />
              <mxPoint x="-70" y="320" />
              <mxPoint x="-100" y="490" />
              <mxPoint x="-90" y="429" />
              <mxPoint x="-60" y="460" />
              <mxPoint x="-90" y="500" />
              <mxPoint x="-70" y="490" />
            </Array>
          </mxGeometry>
        </mxCell>
        <mxCell id="m3Vux-1cXnavoQxJAWtm-1" value="dim_reviewers" style="swimlane;childLayout=stackLayout;horizontal=1;startSize=20;horizontalStack=0;rounded=1;fontSize=14;fontStyle=0;strokeWidth=2;resizeParent=0;resizeLast=1;shadow=0;dashed=0;align=center;arcSize=4;whiteSpace=wrap;html=1;fillColor=#dae8fc;strokeColor=#6c8ebf;" vertex="1" parent="1">
          <mxGeometry x="-40" y="1050" width="170" height="100" as="geometry" />
        </mxCell>
        <mxCell id="m3Vux-1cXnavoQxJAWtm-2" value="+ reviewer_id&lt;div&gt;+ reviewer_name&lt;/div&gt;" style="align=left;strokeColor=none;fillColor=none;spacingLeft=4;fontSize=12;verticalAlign=top;resizable=0;rotatable=0;part=1;html=1;" vertex="1" parent="m3Vux-1cXnavoQxJAWtm-1">
          <mxGeometry y="20" width="170" height="80" as="geometry" />
        </mxCell>
        <mxCell id="m3Vux-1cXnavoQxJAWtm-4" value="fct_listing_reviews" style="swimlane;childLayout=stackLayout;horizontal=1;startSize=20;horizontalStack=0;rounded=1;fontSize=14;fontStyle=0;strokeWidth=2;resizeParent=0;resizeLast=1;shadow=0;dashed=0;align=center;arcSize=4;whiteSpace=wrap;html=1;fillColor=#fff2cc;strokeColor=#d6b656;" vertex="1" parent="1">
          <mxGeometry x="190" y="1050" width="270" height="110" as="geometry" />
        </mxCell>
        <mxCell id="m3Vux-1cXnavoQxJAWtm-5" value="&lt;div&gt;&lt;span style=&quot;background-color: transparent; color: light-dark(rgb(0, 0, 0), rgb(255, 255, 255));&quot;&gt;+ scrape_id&lt;/span&gt;&lt;/div&gt;&lt;div&gt;+ listing_id&lt;/div&gt;&lt;div&gt;+ reviewer_id&lt;/div&gt;&lt;div&gt;+ comments&lt;/div&gt;" style="align=left;strokeColor=none;fillColor=none;spacingLeft=4;fontSize=12;verticalAlign=top;resizable=0;rotatable=0;part=1;html=1;" vertex="1" parent="m3Vux-1cXnavoQxJAWtm-4">
          <mxGeometry y="20" width="270" height="90" as="geometry" />
        </mxCell>
        <mxCell id="m3Vux-1cXnavoQxJAWtm-9" value="" style="edgeStyle=entityRelationEdgeStyle;fontSize=12;html=1;endArrow=ERoneToMany;rounded=0;entryX=0;entryY=0.5;entryDx=0;entryDy=0;" edge="1" parent="1" source="shkfzsNHpXwQDpeqCOwV-22" target="shkfzsNHpXwQDpeqCOwV-32">
          <mxGeometry width="100" height="100" relative="1" as="geometry">
            <mxPoint x="110" y="600" as="sourcePoint" />
            <mxPoint x="210" y="500" as="targetPoint" />
          </mxGeometry>
        </mxCell>
        <mxCell id="m3Vux-1cXnavoQxJAWtm-10" value="" style="edgeStyle=entityRelationEdgeStyle;fontSize=12;html=1;endArrow=ERoneToMany;rounded=0;entryX=-0.015;entryY=0.633;entryDx=0;entryDy=0;exitX=1;exitY=0;exitDx=0;exitDy=0;entryPerimeter=0;" edge="1" parent="1" source="shkfzsNHpXwQDpeqCOwV-22" target="shkfzsNHpXwQDpeqCOwV-16">
          <mxGeometry width="100" height="100" relative="1" as="geometry">
            <mxPoint x="-310" y="700" as="sourcePoint" />
            <mxPoint x="-170" y="810" as="targetPoint" />
          </mxGeometry>
        </mxCell>
        <mxCell id="m3Vux-1cXnavoQxJAWtm-13" value="" style="edgeStyle=entityRelationEdgeStyle;fontSize=12;html=1;endArrow=ERoneToMany;rounded=0;entryX=0.002;entryY=0.09;entryDx=0;entryDy=0;entryPerimeter=0;exitX=1;exitY=0.75;exitDx=0;exitDy=0;" edge="1" parent="1" source="shkfzsNHpXwQDpeqCOwV-32" target="m3Vux-1cXnavoQxJAWtm-5">
          <mxGeometry width="100" height="100" relative="1" as="geometry">
            <mxPoint x="140" y="867" as="sourcePoint" />
            <mxPoint x="250" y="750" as="targetPoint" />
          </mxGeometry>
        </mxCell>
        <mxCell id="m3Vux-1cXnavoQxJAWtm-14" value="" style="edgeStyle=entityRelationEdgeStyle;fontSize=12;html=1;endArrow=ERoneToMany;rounded=0;entryX=-0.006;entryY=0.339;entryDx=0;entryDy=0;entryPerimeter=0;exitX=0.987;exitY=0.37;exitDx=0;exitDy=0;exitPerimeter=0;" edge="1" parent="1" source="m3Vux-1cXnavoQxJAWtm-2" target="m3Vux-1cXnavoQxJAWtm-5">
          <mxGeometry width="100" height="100" relative="1" as="geometry">
            <mxPoint x="-30" y="1240" as="sourcePoint" />
            <mxPoint x="70" y="1140" as="targetPoint" />
          </mxGeometry>
        </mxCell>
        <mxCell id="m3Vux-1cXnavoQxJAWtm-19" value="" style="edgeStyle=entityRelationEdgeStyle;fontSize=12;html=1;endArrow=ERoneToMany;rounded=0;entryX=1.007;entryY=0.641;entryDx=0;entryDy=0;entryPerimeter=0;exitX=0;exitY=0.25;exitDx=0;exitDy=0;" edge="1" parent="1" source="m3Vux-1cXnavoQxJAWtm-18" target="shkfzsNHpXwQDpeqCOwV-14">
          <mxGeometry width="100" height="100" relative="1" as="geometry">
            <mxPoint x="649" y="549" as="sourcePoint" />
            <mxPoint x="550" y="549" as="targetPoint" />
            <Array as="points">
              <mxPoint x="609" y="484" />
              <mxPoint x="669" y="514" />
              <mxPoint x="609" y="434" />
            </Array>
          </mxGeometry>
        </mxCell>
        <mxCell id="m3Vux-1cXnavoQxJAWtm-21" value="" style="edgeStyle=entityRelationEdgeStyle;fontSize=12;html=1;endArrow=ERoneToMany;rounded=0;entryX=1;entryY=0.25;entryDx=0;entryDy=0;exitX=0;exitY=0.75;exitDx=0;exitDy=0;" edge="1" parent="1" source="shkfzsNHpXwQDpeqCOwV-6" target="m3Vux-1cXnavoQxJAWtm-5">
          <mxGeometry width="100" height="100" relative="1" as="geometry">
            <mxPoint x="490" y="730" as="sourcePoint" />
            <mxPoint x="602" y="770" as="targetPoint" />
            <Array as="points">
              <mxPoint x="739" y="877" />
              <mxPoint x="799" y="907" />
              <mxPoint x="739" y="827" />
            </Array>
          </mxGeometry>
        </mxCell>
        <mxCell id="m3Vux-1cXnavoQxJAWtm-23" value="" style="edgeStyle=entityRelationEdgeStyle;fontSize=12;html=1;endArrow=ERoneToMany;rounded=0;exitX=1;exitY=0.25;exitDx=0;exitDy=0;entryX=-0.001;entryY=0.153;entryDx=0;entryDy=0;entryPerimeter=0;" edge="1" parent="1" source="shkfzsNHpXwQDpeqCOwV-16" target="shkfzsNHpXwQDpeqCOwV-14">
          <mxGeometry width="100" height="100" relative="1" as="geometry">
            <mxPoint x="50" y="590" as="sourcePoint" />
            <mxPoint x="150" y="490" as="targetPoint" />
          </mxGeometry>
        </mxCell>
      </root>
    </mxGraphModel>
  </diagram>
</mxfile>
